<svg xmlns="http://www.w3.org/2000/svg" width="2603.763" height="4832.081" viewBox="0 0 2603.763 4832.081">
  <path id="Tracé_6" data-name="Tracé 6" d="M1865.715,4388.481q-211.094,135.976-505.455,135.891-282.775,0-507.322-137.928Q628.22,4248.558,500.52,3994.9q-127.828-253.619-127.828-590.334,0-340.832,127.828-594.408,127.828-253.491,352.418-391.547,224.59-137.886,507.322-137.928,294.361,0,505.455,137.928c111.87,73.081,212.622,163.392,287.061,282.732a60.166,60.166,0,0,1,5.093,10.525l64.593,178.84a50.744,50.744,0,0,0,47.7,33.528h295.379c35.14,0,59.67-34.97,47.7-67.989L1595.545,46.322a50.667,50.667,0,0,0-47.7-33.442H1177.855a50.791,50.791,0,0,0-47.7,33.357l-979.5,2693.892c-.34,1.019-.764,1.952-1.188,2.971Q12.592,3041.917,12.55,3404.563q0,413.912,178.161,742.522,178.119,328.609,486.018,513.264,307.857,184.74,683.616,184.612,441.541,0,770.7-221.11,299.708-201.29,451.9-555.873c14.344-33.527-10.271-71.043-46.769-71.043H2221.528c-19.777,0-37.347,11.713-45.835,29.538Q2064.417,4260.483,1865.715,4388.481ZM1408.556,616.795,1865.8,1894.309a50.739,50.739,0,0,1-47.787,67.818h-321.1c-1.188,0-2.461-.085-3.65-.17-43.543-3.565-87.68-5.941-133.09-5.941-42.015,0-83.182,2.377-123.924,5.941-1.273.085-2.546.17-3.9.17H903.356c-35.055,0-59.585-34.8-47.787-67.818L1312.9,616.795C1329.109,571.978,1392.514,571.978,1408.556,616.795Z" transform="translate(-12.55 -12.88)" fill="rgba(4,139,154,0.03)"/>
</svg>