<?xml version="1.0" encoding="utf-8"?>
<!-- Generator: Adobe Illustrator 28.0.0, SVG Export Plug-In . SVG Version: 6.00 Build 0)  -->
<svg version="1.1" id="Capa_1" xmlns="http://www.w3.org/2000/svg" xmlns:xlink="http://www.w3.org/1999/xlink" x="0px" y="0px"
	 viewBox="0 0 800 800" style="enable-background:new 0 0 800 800;" xml:space="preserve">
<style type="text/css">
	.st0{fill:#ED7F10;stroke:#000000;stroke-miterlimit:10;}
	.st1{fill:#FFFFFF;}
</style>
<circle class="st0" cx="400" cy="400" r="372.3"/>
<g>
	<g>
		<path class="st1" d="M400,0C179.4,0,0,179.4,0,400s179.4,400,400,400s400-179.4,400-400S620.6,0,400,0z M400,734.4
			c-184.4,0-334.4-150-334.4-334.4S215.6,65.6,400,65.6s334.4,150,334.4,334.4S584.4,734.4,400,734.4z"/>
		<path class="st1" d="M573,246.5L335.5,484L227,375.4c-12.8-12.8-33.6-12.8-46.4,0c-12.8,12.8-12.8,33.6,0,46.4l131.8,131.8
			c6.4,6.4,14.8,9.6,23.2,9.6c8.4,0,16.8-3.2,23.2-9.6l260.7-260.7c12.8-12.8,12.8-33.6,0-46.4C606.6,233.7,585.8,233.7,573,246.5z"
			/>
	</g>
</g>
</svg>
