<?xml version="1.0" encoding="utf-8"?>
<!-- Generator: Adobe Illustrator 28.0.0, SVG Export Plug-In . SVG Version: 6.00 Build 0)  -->
<svg version="1.1" id="Layer_1" xmlns="http://www.w3.org/2000/svg" xmlns:xlink="http://www.w3.org/1999/xlink" x="0px" y="0px"
	 viewBox="0 0 107.9 122.9" style="enable-background:new 0 0 107.9 122.9;" xml:space="preserve">
<style type="text/css">
	.st0{fill-rule:evenodd;clip-rule:evenodd;fill:#FFFFFF;}
</style>
<path class="st0" d="M86.1,81.8c13.2,4.2,21.8,10.8,21.8,18.3c0,12.6-24.1,22.8-53.9,22.8S0,112.7,0,100.1c0-7.7,9-14.5,22.7-18.6
	c0.5,0.8,1,1.5,1.5,2.3c1.1,1.6,2.2,3.1,3.3,4.6c-9.6,2.6-15.8,6.6-15.8,11c0,7.8,18.7,14.1,41.7,14.1s41.7-6.3,41.7-14.1
	c0-4.2-5.3-7.9-13.8-10.5C83,86.6,84.6,84.2,86.1,81.8L86.1,81.8z M71.7,84.5c-4.5,5-9.7,9.3-15.4,12.8c-0.7,0.5-1.7,0.6-2.5,0.1
	c-8.2-5.1-15.4-11.6-21.5-19.2C24.5,68.4,19.5,57.5,17.8,47c-1.7-10.6-0.1-20.8,5.2-29.1c2.2-3.4,4.9-6.4,8-8.9
	c7.5-5.9,16-9.1,24.5-9c8.7,0.1,16.9,3.5,23.2,9.5c2.4,2.2,4.5,4.7,6.2,7.5c5.7,9.4,6.9,21.3,4.4,33.4
	C86.5,63.1,80.4,74.8,71.7,84.5L71.7,84.5L71.7,84.5z M53.9,18.9c10.1,0,18.2,8.2,18.2,18.2s-8.2,18.2-18.2,18.2
	s-18.2-8.2-18.2-18.2C35.6,27.1,43.8,18.9,53.9,18.9C53.8,18.9,53.8,18.9,53.9,18.9z"/>
</svg>
