<?xml version="1.0" encoding="utf-8"?>
<!-- Generator: Adobe Illustrator 28.0.0, SVG Export Plug-In . SVG Version: 6.00 Build 0)  -->
<svg version="1.1" id="Calque_1" xmlns="http://www.w3.org/2000/svg" xmlns:xlink="http://www.w3.org/1999/xlink" x="0px" y="0px"
	 viewBox="0 0 28 24" style="enable-background:new 0 0 28 24;" xml:space="preserve">
<style type="text/css">
	.st0{fill:#FFFFFF;}
</style>
<path class="st0" d="M12.64,17.08c2.87-0.66,4.54-1.24,3.25-3.68C11.96,5.97,14.85,2,19,2c4.24,0,7.05,4.12,3.11,11.4
	c-1.33,2.45,0.44,3.03,3.24,3.68c2.48,0.57,2.65,1.79,2.65,3.89V22H10C10,19.26,9.78,17.74,12.64,17.08z M0,22h7.81
	c-0.03-8.18,3.44-5.31,3.44-11.13C11.24,8.36,9.61,7,7.5,7c-3.12,0-5.28,2.98-2.33,8.55c0.97,1.83-1.03,2.26-3.18,2.76
	C0.12,18.74,0,19.65,0,21.23V22z"/>
</svg>
