<?xml version="1.0" encoding="utf-8"?>
<!-- Generator: Adobe Illustrator 28.0.0, SVG Export Plug-In . SVG Version: 6.00 Build 0)  -->
<svg version="1.1" id="Calque_1" xmlns="http://www.w3.org/2000/svg" xmlns:xlink="http://www.w3.org/1999/xlink" x="0px" y="0px"
	 viewBox="0 0 28 24" style="enable-background:new 0 0 28 24;" xml:space="preserve">
<path d="M12.6,17.1c2.9-0.7,4.5-1.2,3.2-3.7C12,6,14.9,2,19,2c4.2,0,7,4.1,3.1,11.4c-1.3,2.4,0.4,3,3.2,3.7c2.5,0.6,2.6,1.8,2.6,3.9
	v1H10C10,19.3,9.8,17.7,12.6,17.1z M0,22h7.8c0-8.2,3.4-5.3,3.4-11.1C11.2,8.4,9.6,7,7.5,7c-3.1,0-5.3,3-2.3,8.6
	c1,1.8-1,2.3-3.2,2.8c-1.9,0.4-2,1.3-2,2.9V22z"/>
</svg>
