<?xml version="1.0" encoding="utf-8"?>
<!-- Generator: Adobe Illustrator 28.0.0, SVG Export Plug-In . SVG Version: 6.00 Build 0)  -->
<svg version="1.1" id="Calque_1" xmlns="http://www.w3.org/2000/svg" xmlns:xlink="http://www.w3.org/1999/xlink" x="0px" y="0px"
	 viewBox="0 0 24 24" style="enable-background:new 0 0 24 24;" xml:space="preserve">
<style type="text/css">
	.st0{fill:#FFFFFF;}
</style>
<path class="st0" d="M22.1,13.1L24,12l-1.9-1.1c-1-0.6-1.4-1.9-0.8-2.9L22.4,6l-2.2,0C19,6,18,5,18,3.8l0-2.2l-1.9,1.1
	c-1,0.6-2.3,0.2-2.9-0.8L12,0l-1.1,1.9c-0.6,1-1.9,1.4-2.9,0.8L6,1.6l0,2.2C6,5,5,6,3.8,6L1.6,6l1.1,1.9c0.6,1,0.2,2.3-0.8,2.9L0,12
	l1.9,1.1c1,0.6,1.4,1.9,0.8,2.9L1.6,18l2.2,0C5,18,6,19,6,20.2l0,2.2l1.9-1.1c1-0.6,2.3-0.2,2.9,0.8L12,24l1.1-1.9
	c0.6-1,1.9-1.4,2.9-0.8l1.9,1.1l0-2.2c0-1.2,1-2.1,2.2-2.2l2.2,0l-1.1-1.9C20.7,15,21.1,13.7,22.1,13.1z M12,20c-4.4,0-8-3.6-8-8
	s3.6-8,8-8s8,3.6,8,8S16.4,20,12,20z M18,12c0,3.3-2.7,6-6,6s-6-2.7-6-6s2.7-6,6-6S18,8.7,18,12z"/>
</svg>
