<?xml version="1.0" encoding="utf-8"?>
<!-- Generator: Adobe Illustrator 28.0.0, SVG Export Plug-In . SVG Version: 6.00 Build 0)  -->
<svg version="1.1" id="Calque_1" xmlns="http://www.w3.org/2000/svg" xmlns:xlink="http://www.w3.org/1999/xlink" x="0px" y="0px"
	 viewBox="0 0 319 582" style="enable-background:new 0 0 319 582;" xml:space="preserve">
<style type="text/css">
	.st0{fill:#048B9A;}
	.st1{fill:#090A74;}
</style>
<g>
	<g>
		<path class="st0" d="M230.88,528.39c-16.58,10.68-36.43,16.01-59.55,16.01c-22.21,0-42.13-5.42-59.77-16.25
			c-17.65-10.83-31.49-26.21-41.52-46.13C60,462.1,54.98,438.92,54.98,412.47c0-26.77,5.02-50.11,15.06-70.03
			c10.04-19.91,23.88-35.29,41.52-46.13c17.64-10.83,37.56-16.25,59.77-16.25c23.12,0,42.96,5.42,59.55,16.25
			c13.18,8.61,25.05,19.25,33.82,33.31c0.24,0.39,0.44,0.81,0.6,1.24l7.61,21.07c0.86,2.37,3.1,3.95,5.62,3.95h34.8
			c4.14,0,7.03-4.12,5.62-8.01L199.05,16.82c-0.86-2.37-3.1-3.94-5.62-3.94h-43.59c-2.51,0-4.76,1.57-5.62,3.93L28.82,334.19
			c-0.04,0.12-0.09,0.23-0.14,0.35c-10.75,23.47-16.13,49.44-16.13,77.93c0,32.51,6.99,61.67,20.99,87.48
			c13.99,25.81,33.08,45.97,57.26,60.47c24.18,14.51,51.03,21.75,80.54,21.75c34.68,0,64.94-8.68,90.8-26.05
			c23.54-15.81,41.29-37.64,53.24-65.49c1.69-3.95-1.21-8.37-5.51-8.37H272.8c-2.33,0-4.4,1.38-5.4,3.48
			C258.66,504.12,246.49,518.34,230.88,528.39z M177.02,84.03l53.87,150.51c1.39,3.89-1.49,7.99-5.63,7.99l-37.83,0
			c-0.14,0-0.29-0.01-0.43-0.02c-5.13-0.42-10.33-0.7-15.68-0.7c-4.95,0-9.8,0.28-14.6,0.7c-0.15,0.01-0.3,0.02-0.46,0.02l-38.76,0
			c-4.13,0-7.02-4.1-5.63-7.99l53.88-150.51C167.66,78.75,175.13,78.75,177.02,84.03z"/>
	</g>
	<g>
		<path class="st1" d="M160.3,572.97c-29.71,0-57.13-7.41-81.48-22.01c-24.36-14.61-43.86-35.19-57.93-61.17
			C6.81,463.82-0.33,434.1-0.33,401.43c0-28.68,5.51-55.21,16.37-78.87L132.89,1.21c0.26-0.73,0.95-1.21,1.73-1.21h51.97
			c0.77,0,1.47,0.49,1.73,1.21L312.55,344.2c0.2,0.56,0.12,1.19-0.22,1.68c-0.34,0.49-0.91,0.78-1.51,0.78h-47.51
			c-0.77,0-1.47-0.49-1.73-1.21l-9.21-25.49c-7.81-12.67-18.78-23.52-33.53-33.16c-16.21-10.59-35.9-15.95-58.54-15.95
			c-21.76,0-41.54,5.38-58.81,15.98c-17.27,10.6-31.01,25.87-40.85,45.39c-9.86,19.56-14.86,42.85-14.86,69.2
			c0,26.04,5,49.16,14.86,68.73c9.84,19.52,23.58,34.79,40.85,45.39c17.26,10.6,37.05,15.98,58.81,15.98
			c22.65,0,42.35-5.29,58.55-15.72c0,0,0,0,0,0c16.19-10.42,28.77-25.67,37.41-45.32c0.29-0.67,0.95-1.1,1.68-1.1h49.74
			c0.6,0,1.17,0.29,1.51,0.79s0.42,1.12,0.21,1.69c-11.95,32.09-31.22,57.23-57.28,74.74C226.08,564.1,195.19,572.97,160.3,572.97z
			 M135.91,3.68L19.44,323.95c-10.7,23.31-16.1,49.33-16.1,77.47c0,32.05,6.99,61.19,20.77,86.6c13.76,25.4,32.8,45.51,56.59,59.77
			c23.77,14.26,50.55,21.49,79.59,21.49c34.15,0,64.35-8.66,89.78-25.74c24.74-16.61,43.21-40.32,54.94-70.49h-45.87
			c-8.92,19.79-21.8,35.22-38.3,45.84l0,0c-16.8,10.83-37.17,16.31-60.54,16.31c-22.45,0-42.88-5.56-60.74-16.53
			c-17.86-10.96-32.06-26.73-42.2-46.87c-10.12-20.08-15.26-43.76-15.26-70.38c0-26.93,5.13-50.77,15.26-70.85
			c10.15-20.14,24.35-35.91,42.2-46.87c17.86-10.96,38.29-16.52,60.74-16.52c23.36,0,43.74,5.57,60.55,16.55
			c15.28,9.99,26.65,21.27,34.75,34.48c0.06,0.11,0.12,0.22,0.16,0.34l8.84,24.45h43.6L185.3,3.68H135.91z M222.72,233.33h-46.53
			c-11.66-0.94-18.97-1.02-30.56-0.01l-47.63,0.01c-0.6,0-1.16-0.29-1.5-0.78c-0.34-0.49-0.43-1.12-0.23-1.68l62.36-174.22
			c0.52-1.46,2.94-1.46,3.46,0l62.36,174.22c0.2,0.56,0.12,1.19-0.23,1.68C223.88,233.04,223.32,233.33,222.72,233.33z
			 M160.3,228.93c4.93,0,10.02,0.23,16.04,0.72l43.77-0.01L160.36,62.73l-59.75,166.92h44.86
			C150.98,229.16,155.74,228.93,160.3,228.93z"/>
	</g>
	<g>
		<circle class="st1" cx="103.48" cy="412.9" r="23.92"/>
	</g>
</g>
</svg>
